<svg xmlns="http://www.w3.org/2000/svg" width="1000" height="800" viewBox="0 0 1000 800"><defs><linearGradient id="wall" x2="0.8" y2="1"><stop stop-color="#212631"/><stop offset="1" stop-color="#303848"/></linearGradient><linearGradient id="glass" x2="0" y2="1"><stop stop-color="#192735"/><stop offset="1" stop-color="#303848"/></linearGradient><linearGradient id="curtain"><stop stop-color="#404657" stop-opacity=".55"/><stop offset=".5" stop-color="#404657" stop-opacity=".05"/><stop offset="1" stop-color="#404657" stop-opacity=".4"/></linearGradient><radialGradient id="haze"><stop stop-color="#bac7d2" stop-opacity=".2"/><stop offset="1" stop-color="#bac7d2" stop-opacity="0"/></radialGradient></defs><path fill="url(#wall)" d="M0 0h1000v800H0z"/><path fill="url(#glass)" d="M470-30h500v620H470z"/><circle cx="800" cy="175" r="55" fill="#bac7d2" opacity=".7"/><circle cx="510" cy="42" r="2" fill="#bac7d2" opacity=".7"/><circle cx="610" cy="115" r="1.4" fill="#bac7d2" opacity=".7"/><circle cx="917" cy="200" r="2" fill="#bac7d2" opacity=".7"/><circle cx="730" cy="57" r="2" fill="#bac7d2" opacity=".7"/><circle cx="864" cy="85" r="1" fill="#bac7d2" opacity=".7"/><circle cx="550" cy="242" r="1.5" fill="#bac7d2" opacity=".7"/><circle cx="919" cy="365" r="1" fill="#bac7d2" opacity=".7"/><path d="M482-30v620M715-20v610M963-20v610M476 309h490M476 580h490" stroke="#434c5c" stroke-width="15" fill="none"/><path d="M560 0v580M831 0v580" stroke="#404657" stroke-width="2" opacity=".3"/><path d="M433-20q55 230-25 613h119q-13-266 27-613zM926-20q-25 258 20 617h58V0" fill="url(#curtain)"/><path d="m482 580-120 220h638V580" fill="#404657" opacity=".12"/><path d="M464 590h536v17H464z" fill="#434c5c"/><path d="M0 710q220-42 400-4t600-20v114H0" fill="#404657" opacity=".24"/><ellipse cx="845" cy="640" rx="118" ry="22" fill="#434c5c" opacity=".3"/>
 <g fill="none" stroke="#4e6467" stroke-width="4"><path d="M846 630q25-90-26-210M846 630q-50-95-86-150M849 606q54-125 71-220M835 537q-61-64-104-74"/></g><g transform="translate(820 431) rotate(-25) scale(1)"><path d="M0 0q-38-19-22-69Q11-43 0 0" fill="#778796"/><path d="M0 0q38-28 52-10Q32 9 0 0" fill="#91a3a2"/></g><g transform="translate(833 486) rotate(15) scale(1)"><path d="M0 0q-38-19-22-69Q11-43 0 0" fill="#778796"/><path d="M0 0q38-28 52-10Q32 9 0 0" fill="#91a3a2"/></g><g transform="translate(803 498) rotate(-55) scale(0.9)"><path d="M0 0q-38-19-22-69Q11-43 0 0" fill="#778796"/><path d="M0 0q38-28 52-10Q32 9 0 0" fill="#91a3a2"/></g><g transform="translate(773 482) rotate(-50) scale(0.9)"><path d="M0 0q-38-19-22-69Q11-43 0 0" fill="#778796"/><path d="M0 0q38-28 52-10Q32 9 0 0" fill="#91a3a2"/></g><g transform="translate(790 548) rotate(-60) scale(0.8)"><path d="M0 0q-38-19-22-69Q11-43 0 0" fill="#778796"/><path d="M0 0q38-28 52-10Q32 9 0 0" fill="#91a3a2"/></g><g transform="translate(869 510) rotate(40) scale(1)"><path d="M0 0q-38-19-22-69Q11-43 0 0" fill="#778796"/><path d="M0 0q38-28 52-10Q32 9 0 0" fill="#91a3a2"/></g><g transform="translate(888 462) rotate(30) scale(0.8)"><path d="M0 0q-38-19-22-69Q11-43 0 0" fill="#778796"/><path d="M0 0q38-28 52-10Q32 9 0 0" fill="#91a3a2"/></g><g transform="translate(915 407) rotate(23) scale(0.9)"><path d="M0 0q-38-19-22-69Q11-43 0 0" fill="#778796"/><path d="M0 0q38-28 52-10Q32 9 0 0" fill="#91a3a2"/></g><g transform="translate(729 461) rotate(-70) scale(0.9)"><path d="M0 0q-38-19-22-69Q11-43 0 0" fill="#778796"/><path d="M0 0q38-28 52-10Q32 9 0 0" fill="#91a3a2"/></g><g transform="translate(907 493) rotate(65) scale(0.8)"><path d="M0 0q-38-19-22-69Q11-43 0 0" fill="#778796"/><path d="M0 0q38-28 52-10Q32 9 0 0" fill="#91a3a2"/></g><g transform="translate(835 562) rotate(-27) scale(0.9)"><path d="M0 0q-38-19-22-69Q11-43 0 0" fill="#778796"/><path d="M0 0q38-28 52-10Q32 9 0 0" fill="#91a3a2"/></g><path d="M806 591h82l-10 68q-33 14-62 0z" fill="#404657" opacity=".8"/><path d="M809 592q38 9 78 0" fill="none" stroke="#434c5c" stroke-width="2"/><path d="M561 724q-21-31-2-54l-1-23 20 10q13-5 23 4l23-4-8 22q22 22 16 38 38-36 53-10 7 22-38 30-55 4-86-13" fill="#4e6467" opacity=".55"/><ellipse cx="630" cy="720" rx="86" ry="9" fill="#434c5c" opacity=".2"/><circle cx="730" cy="370" r="360" fill="url(#haze)"/></svg>